<svg width="294" height="270" viewBox="0 0 294 270" fill="none" xmlns="http://www.w3.org/2000/svg">
<g filter="url(#filter0_d_0_3664)">
<g clip-path="url(#clip0_0_3664)">
<g opacity="0.6">
<circle cx="33.3729" cy="197.924" r="1.5" fill="#F60000"/>
<circle cx="40.3729" cy="197.924" r="1.5" fill="#F60000"/>
<circle cx="47.3729" cy="197.924" r="1.5" fill="#F60000"/>
<circle cx="54.3729" cy="197.924" r="1.5" fill="#F60000"/>
<circle cx="61.3729" cy="197.924" r="1.5" fill="#F60000"/>
<circle cx="68.3729" cy="197.924" r="1.5" fill="#F60000"/>
<circle cx="75.3729" cy="197.924" r="1.5" fill="#F60000"/>
</g>
<g opacity="0.6">
<circle cx="33.3729" cy="203.619" r="1.5" fill="#F60000"/>
<circle cx="40.3729" cy="203.619" r="1.5" fill="#F60000"/>
<circle cx="47.3729" cy="203.619" r="1.5" fill="#F60000"/>
<circle cx="54.3729" cy="203.619" r="1.5" fill="#F60000"/>
<circle cx="61.3729" cy="203.619" r="1.5" fill="#F60000"/>
<circle cx="68.3729" cy="203.619" r="1.5" fill="#F60000"/>
<circle cx="75.3729" cy="203.619" r="1.5" fill="#F60000"/>
</g>
<g opacity="0.6">
<circle cx="33.3729" cy="209.315" r="1.5" fill="#F60000"/>
<circle cx="40.3729" cy="209.315" r="1.5" fill="#F60000"/>
<circle cx="47.3729" cy="209.315" r="1.5" fill="#F60000"/>
<circle cx="54.3729" cy="209.315" r="1.5" fill="#F60000"/>
<circle cx="61.3729" cy="209.315" r="1.5" fill="#F60000"/>
<circle cx="68.3729" cy="209.315" r="1.5" fill="#F60000"/>
<circle cx="75.3729" cy="209.315" r="1.5" fill="#F60000"/>
</g>
<g opacity="0.6">
<circle cx="33.3729" cy="215.011" r="1.5" fill="#F60000"/>
<circle cx="40.3729" cy="215.011" r="1.5" fill="#F60000"/>
<circle cx="47.3729" cy="215.011" r="1.5" fill="#F60000"/>
<circle cx="54.3729" cy="215.011" r="1.5" fill="#F60000"/>
<circle cx="61.3729" cy="215.011" r="1.5" fill="#F60000"/>
<circle cx="68.3729" cy="215.011" r="1.5" fill="#F60000"/>
<circle cx="75.3729" cy="215.011" r="1.5" fill="#F60000"/>
</g>
<path d="M266.401 97.1636L114.129 247.985" stroke="#FE6F00" stroke-width="1.04" stroke-miterlimit="10" stroke-linecap="round"/>
<path d="M281.11 76.5752L131.94 224.324" stroke="#FE6F00" stroke-width="1.04" stroke-miterlimit="10" stroke-linecap="round"/>
<path d="M97.6214 24.3911L4.69141 116.436" stroke="#4B0082" stroke-width="2.09" stroke-miterlimit="10" stroke-linecap="round"/>
<path d="M74.6885 236.016C88.5275 236.016 99.7462 224.904 99.7462 211.197C99.7462 197.49 88.5275 186.378 74.6885 186.378C60.8496 186.378 49.6309 197.49 49.6309 211.197C49.6309 224.904 60.8496 236.016 74.6885 236.016Z" fill="white"/>
<path d="M214.447 205.013C217.8 205.013 220.519 202.32 220.519 198.999C220.519 195.678 217.8 192.985 214.447 192.985C211.093 192.985 208.375 195.678 208.375 198.999C208.375 202.32 211.093 205.013 214.447 205.013Z" fill="white"/>
<path d="M265.32 154.625C268.673 154.625 271.392 151.932 271.392 148.611C271.392 145.29 268.673 142.597 265.32 142.597C261.966 142.597 259.248 145.29 259.248 148.611C259.248 151.932 261.966 154.625 265.32 154.625Z" fill="white"/>
<path d="M214.461 198.972L265.413 148.506" stroke="white" stroke-width="2.09" stroke-miterlimit="10"/>
<path d="M30.228 177.233C31.8717 177.233 33.2041 175.913 33.2041 174.285C33.2041 172.657 31.8717 171.337 30.228 171.337C28.5844 171.337 27.252 172.657 27.252 174.285C27.252 175.913 28.5844 177.233 30.228 177.233Z" fill="white"/>
<path d="M55.1595 152.539C56.8032 152.539 58.1356 151.219 58.1356 149.591C58.1356 147.963 56.8032 146.644 55.1595 146.644C53.5159 146.644 52.1834 147.963 52.1834 149.591C52.1834 151.219 53.5159 152.539 55.1595 152.539Z" fill="white"/>
<path d="M30.2405 174.272L55.2051 149.539" stroke="white" stroke-width="1.02" stroke-miterlimit="10"/>
<path d="M54.3274 164.251L20.3613 197.893" stroke="white" stroke-width="1.02" stroke-miterlimit="10"/>
<path d="M66.6125 152.085L57.5779 161.033" stroke="white" stroke-width="1.02" stroke-miterlimit="10"/>
<path d="M209.877 237.273L209.943 237.207C210.216 236.937 210.621 236.898 210.96 237.075C212.547 237.924 214.567 237.694 215.915 236.385C217.536 234.812 217.596 232.154 216.042 230.522C214.401 228.798 211.65 228.765 209.97 230.43C208.615 231.772 208.375 233.792 209.239 235.378C209.418 235.707 209.379 236.115 209.106 236.378L209.04 236.444C208.754 236.727 208.302 236.76 207.97 236.536C205.107 234.588 201.115 234.977 198.71 237.707C196.405 240.326 196.444 244.346 198.809 246.925C201.52 249.886 206.15 249.972 208.967 247.175C211.398 244.767 211.664 241.037 209.784 238.332C209.551 238.003 209.591 237.556 209.877 237.273Z" fill="url(#paint0_linear_0_3664)"/>
<path d="M269.365 124.193L269.265 124.292C268.847 124.706 268.216 124.765 267.697 124.489C265.246 123.18 262.137 123.535 260.051 125.555C257.547 127.976 257.46 132.082 259.859 134.602C262.396 137.267 266.635 137.313 269.225 134.747C271.311 132.681 271.683 129.562 270.348 127.114C270.069 126.601 270.135 125.976 270.547 125.568L270.647 125.47C271.092 125.029 271.783 124.976 272.301 125.331C276.719 128.338 282.884 127.746 286.597 123.522C290.158 119.475 290.091 113.271 286.451 109.296C282.266 104.724 275.124 104.598 270.773 108.908C267.026 112.619 266.608 118.377 269.511 122.555C269.863 123.068 269.81 123.752 269.365 124.186V124.193Z" fill="url(#paint1_linear_0_3664)"/>
<path d="M57.7764 215.501C49.0939 219.054 52.2162 262.441 80.5422 262C107.44 261.579 107.719 245.972 81.5985 234.885C67.3225 228.825 66.6582 211.869 57.7764 215.501Z" fill="url(#paint2_linear_0_3664)"/>
<path d="M21.0871 123.265C15.5534 122.969 11.5609 102.118 24.7009 86.4975C37.8409 70.8772 54.4286 66.4884 58.8662 71.2061C64.7254 77.4372 56.2355 86.9844 41.2886 97.4002C26.3417 107.816 27.1655 123.594 21.0871 123.265Z" fill="url(#paint3_linear_0_3664)"/>
<path d="M87.0993 38.7022C89.6309 38.7022 91.6831 36.6695 91.6831 34.1621C91.6831 31.6547 89.6309 29.6221 87.0993 29.6221C84.5678 29.6221 82.5156 31.6547 82.5156 34.1621C82.5156 36.6695 84.5678 38.7022 87.0993 38.7022Z" fill="url(#paint4_linear_0_3664)"/>
<path d="M158.154 33.2803C158.154 34.7541 156.945 35.9517 155.457 35.9517C153.969 35.9517 152.76 34.7541 152.76 33.2803C152.76 31.8064 153.969 30.6089 155.457 30.6089C156.945 30.6089 158.154 31.8064 158.154 33.2803Z" fill="white"/>
<path d="M112.709 251.518C112.709 252.992 111.5 254.189 110.012 254.189C108.524 254.189 107.315 252.992 107.315 251.518C107.315 250.044 108.524 248.847 110.012 248.847C111.5 248.847 112.709 250.044 112.709 251.518Z" fill="url(#paint5_linear_0_3664)"/>
<g opacity="0.2">
<mask id="mask0_0_3664" style="mask-type:alpha" maskUnits="userSpaceOnUse" x="29" y="16" width="54" height="54">
<ellipse cx="56.1613" cy="42.6853" rx="26.8253" ry="26.4944" fill="#D9D9D9"/>
</mask>
<g mask="url(#mask0_0_3664)">
<circle cx="33.4316" cy="16.9758" r="1.5" fill="#F60000"/>
<circle cx="40.4316" cy="16.9758" r="1.5" fill="#F60000"/>
<circle cx="47.4316" cy="16.9758" r="1.5" fill="#F60000"/>
<circle cx="54.4316" cy="16.9758" r="1.5" fill="#F60000"/>
<circle cx="61.4316" cy="16.9758" r="1.5" fill="#F60000"/>
<circle cx="68.4316" cy="16.9758" r="1.5" fill="#F60000"/>
<circle cx="75.4316" cy="16.9758" r="1.5" fill="#F60000"/>
<circle cx="82.4316" cy="16.9758" r="1.5" fill="#F60000"/>
<circle cx="33.4316" cy="22.9758" r="1.5" fill="#F60000"/>
<circle cx="40.4316" cy="22.9758" r="1.5" fill="#F60000"/>
<circle cx="47.4316" cy="22.9758" r="1.5" fill="#F60000"/>
<circle cx="54.4316" cy="22.9758" r="1.5" fill="#F60000"/>
<circle cx="61.4316" cy="22.9758" r="1.5" fill="#F60000"/>
<circle cx="68.4316" cy="22.9758" r="1.5" fill="#F60000"/>
<circle cx="75.4316" cy="22.9758" r="1.5" fill="#F60000"/>
<circle cx="82.4316" cy="22.9758" r="1.5" fill="#F60000"/>
<circle cx="33.4316" cy="28.9758" r="1.5" fill="#F60000"/>
<circle cx="40.4316" cy="28.9758" r="1.5" fill="#F60000"/>
<circle cx="47.4316" cy="28.9758" r="1.5" fill="#F60000"/>
<circle cx="54.4316" cy="28.9758" r="1.5" fill="#F60000"/>
<circle cx="61.4316" cy="28.9758" r="1.5" fill="#F60000"/>
<circle cx="68.4316" cy="28.9758" r="1.5" fill="#F60000"/>
<circle cx="75.4316" cy="28.9758" r="1.5" fill="#F60000"/>
<circle cx="82.4316" cy="28.9758" r="1.5" fill="#F60000"/>
<circle cx="33.4316" cy="34.9758" r="1.5" fill="#F60000"/>
<circle cx="40.4316" cy="34.9758" r="1.5" fill="#F60000"/>
<circle cx="47.4316" cy="34.9758" r="1.5" fill="#F60000"/>
<circle cx="54.4316" cy="34.9758" r="1.5" fill="#F60000"/>
<circle cx="61.4316" cy="34.9758" r="1.5" fill="#F60000"/>
<circle cx="68.4316" cy="34.9758" r="1.5" fill="#F60000"/>
<circle cx="75.4316" cy="34.9758" r="1.5" fill="#F60000"/>
<circle cx="82.4316" cy="34.9758" r="1.5" fill="#F60000"/>
<circle cx="33.4316" cy="40.9758" r="1.5" fill="#F60000"/>
<circle cx="40.4316" cy="40.9758" r="1.5" fill="#F60000"/>
<circle cx="47.4316" cy="40.9758" r="1.5" fill="#F60000"/>
<circle cx="54.4316" cy="40.9758" r="1.5" fill="#F60000"/>
<circle cx="61.4316" cy="40.9758" r="1.5" fill="#F60000"/>
<circle cx="68.4316" cy="40.9758" r="1.5" fill="#F60000"/>
<circle cx="75.4316" cy="40.9758" r="1.5" fill="#F60000"/>
<circle cx="82.4316" cy="40.9758" r="1.5" fill="#F60000"/>
<circle cx="33.4316" cy="46.9758" r="1.5" fill="#F60000"/>
<circle cx="40.4316" cy="46.9758" r="1.5" fill="#F60000"/>
<circle cx="47.4316" cy="46.9758" r="1.5" fill="#F60000"/>
<circle cx="54.4316" cy="46.9758" r="1.5" fill="#F60000"/>
<circle cx="61.4316" cy="46.9758" r="1.5" fill="#F60000"/>
<circle cx="68.4316" cy="46.9758" r="1.5" fill="#F60000"/>
<circle cx="75.4316" cy="46.9758" r="1.5" fill="#F60000"/>
<circle cx="82.4316" cy="46.9758" r="1.5" fill="#F60000"/>
<circle cx="33.4316" cy="52.9758" r="1.5" fill="#F60000"/>
<circle cx="40.4316" cy="52.9758" r="1.5" fill="#F60000"/>
<circle cx="47.4316" cy="52.9758" r="1.5" fill="#F60000"/>
<circle cx="54.4316" cy="52.9758" r="1.5" fill="#F60000"/>
<circle cx="61.4316" cy="52.9758" r="1.5" fill="#F60000"/>
<circle cx="68.4316" cy="52.9758" r="1.5" fill="#F60000"/>
<circle cx="75.4316" cy="52.9758" r="1.5" fill="#F60000"/>
<circle cx="82.4316" cy="52.9758" r="1.5" fill="#F60000"/>
<circle cx="33.4316" cy="58.9758" r="1.5" fill="#F60000"/>
<circle cx="40.4316" cy="58.9758" r="1.5" fill="#F60000"/>
<circle cx="47.4316" cy="58.9758" r="1.5" fill="#F60000"/>
<circle cx="54.4316" cy="58.9758" r="1.5" fill="#F60000"/>
<circle cx="61.4316" cy="58.9758" r="1.5" fill="#F60000"/>
<circle cx="68.4316" cy="58.9758" r="1.5" fill="#F60000"/>
<circle cx="75.4316" cy="58.9758" r="1.5" fill="#F60000"/>
<circle cx="82.4316" cy="58.9758" r="1.5" fill="#F60000"/>
<circle cx="33.4316" cy="64.9758" r="1.5" fill="#F60000"/>
<circle cx="40.4316" cy="64.9758" r="1.5" fill="#F60000"/>
<circle cx="47.4316" cy="64.9758" r="1.5" fill="#F60000"/>
<circle cx="54.4316" cy="64.9758" r="1.5" fill="#F60000"/>
<circle cx="61.4316" cy="64.9758" r="1.5" fill="#F60000"/>
<circle cx="68.4316" cy="64.9758" r="1.5" fill="#F60000"/>
<circle cx="75.4316" cy="64.9758" r="1.5" fill="#F60000"/>
<circle cx="82.4316" cy="64.9758" r="1.5" fill="#F60000"/>
</g>
</g>
</g>
<g opacity="0.2">
<circle cx="215.851" cy="258.863" r="1.5" transform="rotate(-90 215.851 258.863)" fill="#F60000"/>
<circle cx="215.851" cy="251.863" r="1.5" transform="rotate(-90 215.851 251.863)" fill="#F60000"/>
<circle cx="215.851" cy="244.863" r="1.5" transform="rotate(-90 215.851 244.863)" fill="#F60000"/>
<circle cx="215.851" cy="237.863" r="1.5" transform="rotate(-90 215.851 237.863)" fill="#F60000"/>
<circle cx="215.851" cy="230.863" r="1.5" transform="rotate(-90 215.851 230.863)" fill="#F60000"/>
<circle cx="221.851" cy="258.863" r="1.5" transform="rotate(-90 221.851 258.863)" fill="#F60000"/>
<circle cx="221.851" cy="251.863" r="1.5" transform="rotate(-90 221.851 251.863)" fill="#F60000"/>
<circle cx="221.851" cy="244.863" r="1.5" transform="rotate(-90 221.851 244.863)" fill="#F60000"/>
<circle cx="221.851" cy="237.863" r="1.5" transform="rotate(-90 221.851 237.863)" fill="#F60000"/>
<circle cx="221.851" cy="230.863" r="1.5" transform="rotate(-90 221.851 230.863)" fill="#F60000"/>
<circle cx="221.851" cy="223.863" r="1.5" transform="rotate(-90 221.851 223.863)" fill="#F60000"/>
<circle cx="227.851" cy="258.863" r="1.5" transform="rotate(-90 227.851 258.863)" fill="#F60000"/>
<circle cx="227.851" cy="251.863" r="1.5" transform="rotate(-90 227.851 251.863)" fill="#F60000"/>
<circle cx="227.851" cy="244.863" r="1.5" transform="rotate(-90 227.851 244.863)" fill="#F60000"/>
<circle cx="227.851" cy="237.863" r="1.5" transform="rotate(-90 227.851 237.863)" fill="#F60000"/>
<circle cx="227.851" cy="230.863" r="1.5" transform="rotate(-90 227.851 230.863)" fill="#F60000"/>
<circle cx="227.851" cy="223.863" r="1.5" transform="rotate(-90 227.851 223.863)" fill="#F60000"/>
<circle cx="227.851" cy="216.863" r="1.5" transform="rotate(-90 227.851 216.863)" fill="#F60000"/>
<circle cx="233.851" cy="258.863" r="1.5" transform="rotate(-90 233.851 258.863)" fill="#F60000"/>
<circle cx="233.851" cy="251.863" r="1.5" transform="rotate(-90 233.851 251.863)" fill="#F60000"/>
<circle cx="233.851" cy="244.863" r="1.5" transform="rotate(-90 233.851 244.863)" fill="#F60000"/>
<circle cx="233.851" cy="237.863" r="1.5" transform="rotate(-90 233.851 237.863)" fill="#F60000"/>
<circle cx="233.851" cy="230.863" r="1.5" transform="rotate(-90 233.851 230.863)" fill="#F60000"/>
<circle cx="233.851" cy="223.863" r="1.5" transform="rotate(-90 233.851 223.863)" fill="#F60000"/>
<circle cx="233.851" cy="216.863" r="1.5" transform="rotate(-90 233.851 216.863)" fill="#F60000"/>
<circle cx="233.851" cy="209.863" r="1.5" transform="rotate(-90 233.851 209.863)" fill="#F60000"/>
<circle cx="239.851" cy="258.863" r="1.5" transform="rotate(-90 239.851 258.863)" fill="#F60000"/>
<circle cx="239.851" cy="251.863" r="1.5" transform="rotate(-90 239.851 251.863)" fill="#F60000"/>
<circle cx="239.851" cy="244.863" r="1.5" transform="rotate(-90 239.851 244.863)" fill="#F60000"/>
<circle cx="239.851" cy="237.863" r="1.5" transform="rotate(-90 239.851 237.863)" fill="#F60000"/>
<circle cx="239.851" cy="230.863" r="1.5" transform="rotate(-90 239.851 230.863)" fill="#F60000"/>
<circle cx="239.851" cy="223.863" r="1.5" transform="rotate(-90 239.851 223.863)" fill="#F60000"/>
<circle cx="239.851" cy="216.863" r="1.5" transform="rotate(-90 239.851 216.863)" fill="#F60000"/>
<circle cx="239.851" cy="209.863" r="1.5" transform="rotate(-90 239.851 209.863)" fill="#F60000"/>
<circle cx="239.851" cy="202.863" r="1.5" transform="rotate(-90 239.851 202.863)" fill="#F60000"/>
<circle cx="245.851" cy="258.863" r="1.5" transform="rotate(-90 245.851 258.863)" fill="#F60000"/>
<circle cx="245.851" cy="251.863" r="1.5" transform="rotate(-90 245.851 251.863)" fill="#F60000"/>
<circle cx="245.851" cy="244.863" r="1.5" transform="rotate(-90 245.851 244.863)" fill="#F60000"/>
<circle cx="245.851" cy="237.863" r="1.5" transform="rotate(-90 245.851 237.863)" fill="#F60000"/>
<circle cx="245.851" cy="230.863" r="1.5" transform="rotate(-90 245.851 230.863)" fill="#F60000"/>
<circle cx="245.851" cy="223.863" r="1.5" transform="rotate(-90 245.851 223.863)" fill="#F60000"/>
<circle cx="245.851" cy="216.863" r="1.5" transform="rotate(-90 245.851 216.863)" fill="#F60000"/>
<circle cx="245.851" cy="209.863" r="1.5" transform="rotate(-90 245.851 209.863)" fill="#F60000"/>
<circle cx="245.851" cy="202.863" r="1.5" transform="rotate(-90 245.851 202.863)" fill="#F60000"/>
<circle cx="251.851" cy="258.863" r="1.5" transform="rotate(-90 251.851 258.863)" fill="#F60000"/>
<circle cx="251.851" cy="251.863" r="1.5" transform="rotate(-90 251.851 251.863)" fill="#F60000"/>
<circle cx="251.851" cy="244.863" r="1.5" transform="rotate(-90 251.851 244.863)" fill="#F60000"/>
<circle cx="251.851" cy="237.863" r="1.5" transform="rotate(-90 251.851 237.863)" fill="#F60000"/>
<circle cx="251.851" cy="230.863" r="1.5" transform="rotate(-90 251.851 230.863)" fill="#F60000"/>
<circle cx="251.851" cy="223.863" r="1.5" transform="rotate(-90 251.851 223.863)" fill="#F60000"/>
<circle cx="251.851" cy="216.863" r="1.5" transform="rotate(-90 251.851 216.863)" fill="#F60000"/>
<circle cx="251.851" cy="209.863" r="1.5" transform="rotate(-90 251.851 209.863)" fill="#F60000"/>
<circle cx="251.851" cy="202.863" r="1.5" transform="rotate(-90 251.851 202.863)" fill="#F60000"/>
</g>
</g>
<defs>
<filter id="filter0_d_0_3664" x="0" y="0" width="293.227" height="270" filterUnits="userSpaceOnUse" color-interpolation-filters="sRGB">
<feFlood flood-opacity="0" result="BackgroundImageFix"/>
<feColorMatrix in="SourceAlpha" type="matrix" values="0 0 0 0 0 0 0 0 0 0 0 0 0 0 0 0 0 0 127 0" result="hardAlpha"/>
<feOffset dy="4"/>
<feGaussianBlur stdDeviation="2"/>
<feComposite in2="hardAlpha" operator="out"/>
<feColorMatrix type="matrix" values="0 0 0 0 0 0 0 0 0 0 0 0 0 0 0 0 0 0 0.25 0"/>
<feBlend mode="normal" in2="BackgroundImageFix" result="effect1_dropShadow_0_3664"/>
<feBlend mode="normal" in="SourceGraphic" in2="effect1_dropShadow_0_3664" result="shape"/>
</filter>
<linearGradient id="paint0_linear_0_3664" x1="216.367" y1="247.597" x2="203.261" y2="234.358" gradientUnits="userSpaceOnUse">
<stop stop-color="#4B0082"/>
<stop offset="1" stop-color="#FE7A00"/>
</linearGradient>
<linearGradient id="paint1_linear_0_3664" x1="286.398" y1="108.606" x2="260.317" y2="134.938" gradientUnits="userSpaceOnUse">
<stop stop-color="#4B0082"/>
<stop offset="1" stop-color="#FE7700"/>
</linearGradient>
<linearGradient id="paint2_linear_0_3664" x1="62.2273" y1="258.796" x2="80.2669" y2="232.532" gradientUnits="userSpaceOnUse">
<stop stop-color="#FEC928"/>
<stop offset="0.3" stop-color="#ED6C30"/>
<stop offset="0.5" stop-color="#ED6C30"/>
<stop offset="0.68" stop-color="#FEC928"/>
<stop offset="0.84" stop-color="#FE980F"/>
<stop offset="0.99" stop-color="#FE7C01"/>
<stop offset="1" stop-color="#FE7A00"/>
</linearGradient>
<linearGradient id="paint3_linear_0_3664" x1="22.688" y1="82.4839" x2="43.7215" y2="101.206" gradientUnits="userSpaceOnUse">
<stop stop-color="#FEC928"/>
<stop offset="0.3" stop-color="#DAA520"/>
<stop offset="0.5" stop-color="#FEBD22"/>
<stop offset="0.68" stop-color="#FEAD1A"/>
<stop offset="0.84" stop-color="#FE980F"/>
<stop offset="0.99" stop-color="#FE7C01"/>
<stop offset="1" stop-color="#FE7A00"/>
</linearGradient>
<linearGradient id="paint4_linear_0_3664" x1="82.416" y1="30.0761" x2="90.7753" y2="37.5183" gradientUnits="userSpaceOnUse">
<stop stop-color="#FEC928"/>
<stop offset="0.3" stop-color="#4B0082"/>
<stop offset="0.5" stop-color="#FEBD22"/>
<stop offset="0.68" stop-color="#4B0082"/>
<stop offset="0.84" stop-color="#FE980F"/>
<stop offset="0.99" stop-color="#FE7C01"/>
<stop offset="1" stop-color="#FE7A00"/>
</linearGradient>
<linearGradient id="paint5_linear_0_3664" x1="107.308" y1="251.518" x2="112.709" y2="251.518" gradientUnits="userSpaceOnUse">
<stop stop-color="#4B0082"/>
<stop offset="1" stop-color="#FE7A00"/>
</linearGradient>
<clipPath id="clip0_0_3664">
<rect width="285.227" height="262" fill="white" transform="translate(4)"/>
</clipPath>
</defs>
</svg>
