<svg width="357" height="306" viewBox="0 0 357 306" fill="none" xmlns="http://www.w3.org/2000/svg">
<g opacity="0.3">
<path d="M135.249 13.6262L136.783 18.3726L136.895 18.7188H137.259H142.229L138.206 21.6586L137.914 21.8719L138.025 22.216L139.56 26.9681L135.544 24.034L135.249 23.8185L134.954 24.034L130.938 26.9681L132.474 22.216L132.585 21.8719L132.293 21.6586L128.269 18.7188H133.24H133.604L133.715 18.3726L135.249 13.6262Z" stroke="#F60000"/>
<path d="M113.37 79.8131L114.026 81.8408L114.082 82.0139H114.264H116.388L114.668 83.2703L114.522 83.3769L114.578 83.549L115.234 85.5795L113.518 84.326L113.37 84.2183L113.223 84.326L111.507 85.5795L112.163 83.549L112.219 83.3769L112.073 83.2703L110.353 82.0139H112.477H112.659L112.715 81.8408L113.37 79.8131Z" stroke="#F60000" stroke-width="0.5"/>
<rect x="0.703598" y="0.0469497" width="12.8776" height="12.8878" transform="matrix(0.750806 -0.660522 0.65639 0.754422 0.144515 9.64278)" stroke="#F60000"/>
<rect x="0.351799" y="0.0234748" width="6.22622" height="6.23117" transform="matrix(0.750806 -0.660522 0.65639 0.754422 40.8458 47.681)" stroke="#F60000" stroke-width="0.5"/>
<path d="M7.36343 119.5L9.94476 123.996L12.5261 119.5H7.36343Z" stroke="#F60000"/>
<path d="M132.769 129.25L139.227 140.498L145.685 129.25H132.769Z" stroke="#F60000" stroke-width="0.5"/>
<path d="M348.066 178.626L349.599 183.373L349.711 183.719H350.075H355.046L351.022 186.659L350.73 186.872L350.841 187.216L352.377 191.968L348.36 189.034L348.066 188.818L347.771 189.034L343.754 191.968L345.29 187.216L345.401 186.872L345.109 186.659L341.085 183.719H346.056H346.42L346.532 183.373L348.066 178.626Z" stroke="#F60000"/>
<path d="M326.187 244.813L326.842 246.841L326.898 247.014H327.08H329.204L327.484 248.27L327.338 248.377L327.394 248.549L328.05 250.58L326.334 249.326L326.187 249.218L326.039 249.326L324.324 250.58L324.98 248.549L325.035 248.377L324.889 248.27L323.17 247.014H325.294H325.476L325.532 246.841L326.187 244.813Z" stroke="#F60000" stroke-width="0.5"/>
<rect x="0.703598" y="0.0469497" width="12.8776" height="12.8878" transform="matrix(0.750806 -0.660522 0.65639 0.754422 212.961 174.643)" stroke="#F60000"/>
<rect x="0.351799" y="0.0234748" width="6.22622" height="6.23117" transform="matrix(0.750806 -0.660522 0.65639 0.754422 253.662 212.681)" stroke="#F60000" stroke-width="0.5"/>
<path d="M220.18 284.5L222.761 288.996L225.342 284.5H220.18Z" stroke="#F60000"/>
<path d="M345.586 294.25L352.044 305.498L358.502 294.25H345.586Z" stroke="#F60000" stroke-width="0.5"/>
</g>
</svg>
