<svg width="24" height="24" viewBox="0 0 24 24" fill="none" xmlns="http://www.w3.org/2000/svg">
<path fill-rule="evenodd" clip-rule="evenodd" d="M10.268 6.06109C10.8544 6.17165 11.4041 6.42614 11.8678 6.80171C12.3315 7.17728 12.6945 7.66215 12.9244 8.21276C13.1542 8.76336 13.2437 9.36244 13.1846 9.95616C13.1256 10.5499 12.92 11.1196 12.5862 11.6142L21.8096 18.7726C22.1099 18.617 22.4541 18.5675 22.7862 18.6321C23.1183 18.6967 23.4188 18.8717 23.6389 19.1286C23.859 19.3855 23.9857 19.7092 23.9986 20.0472C24.0115 20.3853 23.9098 20.7177 23.7099 20.9906C23.51 21.2636 23.2237 21.4609 22.8975 21.5506C22.5713 21.6403 22.2244 21.6172 21.913 21.4849C21.6016 21.3526 21.3441 21.119 21.1823 20.8219C21.0205 20.5249 20.9638 20.1819 21.0215 19.8485L11.6408 12.5675C11.1991 12.8702 10.6954 13.0705 10.1664 13.1539C9.63743 13.2373 9.09652 13.2017 8.58306 13.0496C8.06961 12.8975 7.59656 12.6328 7.19836 12.2748C6.80016 11.9168 6.48686 11.4745 6.28127 10.98C6.07568 10.4856 5.98298 9.95159 6.00993 9.41682C6.03689 8.88205 6.18281 8.36003 6.43707 7.88879C6.69132 7.41754 7.04752 7.00895 7.47969 6.69277C7.91187 6.37659 8.40914 6.16079 8.93528 6.06109L8.93395 0H10.2674L10.268 6.06109ZM10.8008 9.59962C10.8008 9.7572 10.7697 9.91324 10.7094 10.0588C10.6491 10.2044 10.5607 10.3367 10.4493 10.4481C10.3378 10.5595 10.2055 10.6479 10.0599 10.7082C9.91432 10.7685 9.75826 10.7996 9.60066 10.7996C9.44307 10.7996 9.28701 10.7685 9.14141 10.7082C8.99581 10.6479 8.86351 10.5595 8.75207 10.4481C8.64064 10.3367 8.55224 10.2044 8.49193 10.0588C8.43162 9.91324 8.40058 9.7572 8.40058 9.59962C8.40058 9.28137 8.52701 8.97616 8.75207 8.75113C8.97713 8.52609 9.28238 8.39967 9.60066 8.39967C9.91895 8.39967 10.2242 8.52609 10.4493 8.75113C10.6743 8.97616 10.8008 9.28137 10.8008 9.59962Z" fill="#4B0082"/>
<path d="M14.4184 9.59007C14.4186 8.66794 14.1532 7.76526 13.6539 6.98997C13.1546 6.21468 12.4425 5.59959 11.6028 5.21824V0.0717773C14.4624 0.323101 15.9478 1.22373 17.2779 2.45635C17.3446 2.51901 17.4113 2.57968 17.4753 2.63834C18.042 3.15832 18.4927 3.57297 18.7254 4.19295L21.5482 11.7073C21.6239 11.909 21.6495 12.126 21.6229 12.3398C21.5963 12.5535 21.5183 12.7577 21.3956 12.9347C21.2728 13.1117 21.109 13.2563 20.9181 13.3561C20.7272 13.456 20.5149 13.5081 20.2995 13.5079H19.2121V15.0672L14.1617 11.146C14.3327 10.6453 14.4197 10.1198 14.419 9.59074M7.60255 5.23157V0.161774C1.60878 1.06374 0 5.5349 0 7.98413C0 11.8286 2.45551 14.8105 3.60693 16.0058V24.0002H15.0158V19.659H17.878C18.0793 19.659 18.2713 19.6137 18.442 19.5337L11.3848 14.0539C10.2184 14.5352 8.90938 14.5379 7.74097 14.0615C6.57257 13.585 5.63876 12.6678 5.1416 11.5081C4.64445 10.3485 4.62393 9.03976 5.08449 7.86512C5.54506 6.69048 6.44965 5.74439 7.60255 5.23157Z" fill="#4B0082"/>
</svg>
