<svg width="16" height="17" viewBox="0 0 16 17" fill="none" xmlns="http://www.w3.org/2000/svg">
<path d="M6.74333 15.0407C7.14733 15.374 7.56867 15.6787 8 15.976C8.43226 15.6826 8.85155 15.3706 9.25667 15.0407C9.932 14.4862 10.5676 13.8849 11.1587 13.2414C12.5213 11.7514 14 9.59135 14 7.16669C14 6.37876 13.8448 5.59854 13.5433 4.87059C13.2417 4.14263 12.7998 3.4812 12.2426 2.92405C11.6855 2.36689 11.0241 1.92494 10.2961 1.62341C9.56815 1.32188 8.78793 1.16669 8 1.16669C7.21207 1.16669 6.43185 1.32188 5.7039 1.62341C4.97595 1.92494 4.31451 2.36689 3.75736 2.92405C3.20021 3.4812 2.75825 4.14263 2.45672 4.87059C2.15519 5.59854 2 6.37876 2 7.16669C2 9.59135 3.47867 11.7507 4.84133 13.2414C5.43241 13.8851 6.06798 14.486 6.74333 15.0407ZM8 9.33335C7.42536 9.33335 6.87426 9.10508 6.46794 8.69875C6.06161 8.29242 5.83333 7.74132 5.83333 7.16669C5.83333 6.59205 6.06161 6.04095 6.46794 5.63462C6.87426 5.22829 7.42536 5.00002 8 5.00002C8.57464 5.00002 9.12574 5.22829 9.53206 5.63462C9.93839 6.04095 10.1667 6.59205 10.1667 7.16669C10.1667 7.74132 9.93839 8.29242 9.53206 8.69875C9.12574 9.10508 8.57464 9.33335 8 9.33335Z" fill="white"/>
</svg>
