<svg width="25" height="24" viewBox="0 0 25 24" fill="none" xmlns="http://www.w3.org/2000/svg">
<g clip-path="url(#clip0_0_7017)">
<path d="M12.5 22C6.977 22 2.5 17.523 2.5 12C2.5 6.477 6.977 2 12.5 2C14.0526 1.99922 15.584 2.36033 16.9727 3.05467C18.3613 3.74901 19.5691 4.75746 20.5 6H17.79C16.6352 4.98176 15.2112 4.31836 13.6887 4.0894C12.1663 3.86044 10.6101 4.07566 9.20689 4.70921C7.80371 5.34277 6.61315 6.36776 5.77807 7.66119C4.94299 8.95461 4.49887 10.4615 4.499 12.0011C4.49913 13.5407 4.9435 15.0475 5.77879 16.3408C6.61409 17.6341 7.80482 18.6589 9.2081 19.2922C10.6114 19.9255 12.1676 20.1405 13.69 19.9113C15.2125 19.6821 16.6364 19.0184 17.791 18H20.501C19.57 19.2427 18.3621 20.2512 16.9732 20.9456C15.5844 21.6399 14.0528 22.0009 12.5 22ZM19.5 16V13H11.5V11H19.5V8L24.5 12L19.5 16Z" fill="white"/>
</g>
<defs>
<clipPath id="clip0_0_7017">
<rect width="24" height="24" fill="white" transform="translate(0.5)"/>
</clipPath>
</defs>
</svg>
