<svg width="42" height="42" viewBox="0 0 42 42" fill="none" xmlns="http://www.w3.org/2000/svg">
<circle cx="21" cy="21" r="21" fill="#FAE3DC"/>
<path d="M16.2148 26.4025C16.2148 26.6594 16.1128 26.9058 15.9311 27.0875C15.7494 27.2691 15.503 27.3712 15.2461 27.3712C14.9892 27.3712 14.7428 27.2691 14.5611 27.0875C14.3794 26.9058 14.2773 26.6594 14.2773 26.4025C14.2773 26.1455 14.3794 25.8991 14.5611 25.7174C14.7428 25.5358 14.9892 25.4337 15.2461 25.4337C15.503 25.4337 15.7494 25.5358 15.9311 25.7174C16.1128 25.8991 16.2148 26.1455 16.2148 26.4025ZM17.4805 29.715C17.7374 29.715 17.9838 29.6129 18.1655 29.4312C18.3472 29.2495 18.4492 29.0031 18.4492 28.7462C18.4492 28.4893 18.3472 28.2429 18.1655 28.0612C17.9838 27.8795 17.7374 27.7775 17.4805 27.7775C17.2235 27.7775 16.9771 27.8795 16.7955 28.0612C16.6138 28.2429 16.5117 28.4893 16.5117 28.7462C16.5117 29.0031 16.6138 29.2495 16.7955 29.4312C16.9771 29.6129 17.2235 29.715 17.4805 29.715ZM15.4336 29.4415C15.4336 29.6984 15.3315 29.9449 15.1499 30.1265C14.9682 30.3082 14.7218 30.4103 14.4648 30.4103C14.2079 30.4103 13.9615 30.3082 13.7798 30.1265C13.5982 29.9449 13.4961 29.6984 13.4961 29.4415C13.4961 29.1846 13.5982 28.9382 13.7798 28.7565C13.9615 28.5748 14.2079 28.4728 14.4648 28.4728C14.7218 28.4728 14.9682 28.5748 15.1499 28.7565C15.3315 28.9382 15.4336 29.1846 15.4336 29.4415ZM19.4023 15.3986C19.2852 15.3986 19.1602 15.3439 19.0898 15.2423C19.0264 15.1591 18.9982 15.0543 19.0114 14.9506C19.0245 14.8468 19.078 14.7523 19.1602 14.6876L19.1648 14.6845C19.2273 14.64 19.8164 14.2228 20.6523 14.3204C20.8711 14.3439 21.0273 14.547 20.9961 14.7579C20.9727 14.9767 20.7695 15.1329 20.5586 15.1017C20.0586 15.0368 19.7133 15.2673 19.6531 15.3071L19.6445 15.3126C19.5742 15.3751 19.4883 15.3986 19.4023 15.3986ZM24.3633 15.3986C24.2763 15.3991 24.1914 15.3717 24.1211 15.3204L24.118 15.3189C23.8484 15.1442 23.5258 15.0701 23.207 15.1095C23.1035 15.1214 22.9995 15.092 22.9176 15.0276C22.8356 14.9632 22.7824 14.8691 22.7695 14.7657C22.7461 14.547 22.9023 14.3517 23.1133 14.3282C23.6367 14.2678 24.1644 14.397 24.6008 14.6923L24.6055 14.6954C24.7773 14.8282 24.8086 15.0782 24.6758 15.2501C24.5977 15.3517 24.4805 15.3986 24.3633 15.3986ZM20.1523 15.6798C19.6758 15.6798 19.2852 16.0079 19.1758 16.4454C19.1445 16.5704 19.2383 16.6876 19.3711 16.6876H19.6758C19.649 16.5914 19.6449 16.4902 19.6637 16.3921C19.6826 16.294 19.7239 16.2016 19.7844 16.1221C19.845 16.0427 19.9231 15.9783 20.0127 15.9341C20.1023 15.8899 20.2009 15.867 20.3008 15.8673C20.6602 15.8673 20.9492 16.1564 20.9414 16.5157C20.9414 16.5782 20.9336 16.6329 20.918 16.6876H20.9805C21.082 16.6876 21.168 16.5939 21.1445 16.4923C21.0508 16.0236 20.6445 15.6798 20.1523 15.6798ZM23.6133 15.6798C24.0898 15.6798 24.4805 16.0079 24.5898 16.4454C24.5971 16.4747 24.5975 16.5052 24.591 16.5346C24.5844 16.564 24.5712 16.5915 24.5523 16.615C24.5334 16.6384 24.5093 16.6572 24.4819 16.6698C24.4546 16.6824 24.4246 16.6885 24.3945 16.6876H24.0898C24.1166 16.5914 24.1208 16.4902 24.1019 16.3921C24.0831 16.294 24.0417 16.2016 23.9812 16.1221C23.9207 16.0427 23.8425 15.9783 23.7529 15.9341C23.6634 15.8899 23.5647 15.867 23.4648 15.8673C23.1055 15.8673 22.8164 16.1564 22.8242 16.5157C22.8242 16.5782 22.832 16.6329 22.8477 16.6876H22.7852C22.6836 16.6876 22.5977 16.5939 22.6211 16.4923C22.7148 16.0236 23.1211 15.6798 23.6133 15.6798Z" fill="#FF5201"/>
<path d="M20.2012 16.2579C20.2011 16.2827 20.1932 16.3069 20.1786 16.3269C20.1639 16.3469 20.1433 16.3618 20.1197 16.3694C20.0961 16.3769 20.0706 16.3768 20.0471 16.369C20.0236 16.3612 20.0031 16.3461 19.9887 16.3259C19.954 16.3832 19.9356 16.4488 19.9355 16.5158C19.9355 16.5783 19.9512 16.6329 19.9746 16.6876H20.6309C20.6543 16.6329 20.6699 16.5783 20.6699 16.5158C20.67 16.4557 20.6554 16.3965 20.6273 16.3434C20.5992 16.2903 20.5584 16.2449 20.5087 16.2111C20.4589 16.1774 20.4017 16.1565 20.3419 16.15C20.2822 16.1436 20.2218 16.152 20.166 16.1744C20.1771 16.1853 20.186 16.1983 20.192 16.2126C20.198 16.227 20.2012 16.2424 20.2012 16.2579ZM23.3809 16.2579C23.381 16.2849 23.3719 16.311 23.3551 16.332C23.3383 16.353 23.3147 16.3675 23.2884 16.3732C23.2621 16.3789 23.2347 16.3754 23.2107 16.3632C23.1867 16.351 23.1676 16.331 23.1566 16.3064C23.1142 16.3679 23.0916 16.441 23.0918 16.5158C23.0918 16.5783 23.1074 16.6329 23.1387 16.6876H23.7871C23.8105 16.6329 23.8262 16.5783 23.8262 16.5158C23.8262 16.4572 23.8123 16.3995 23.7856 16.3475C23.7588 16.2954 23.72 16.2505 23.6724 16.2165C23.6248 16.1825 23.5697 16.1603 23.5118 16.1519C23.4539 16.1435 23.3948 16.149 23.3395 16.1681C23.3525 16.1792 23.3629 16.1929 23.3701 16.2084C23.3773 16.224 23.3809 16.2409 23.3809 16.2579ZM21.6152 16.4611L21.2402 17.672C21.1621 17.922 21.3496 18.172 21.6074 18.172H22.1621C22.4199 18.172 22.6074 17.922 22.5293 17.672L22.1543 16.4611C22.0762 16.1954 21.6934 16.1954 21.6152 16.4611ZM20.8184 18.6251C21.123 18.7892 21.4902 18.8829 21.8809 18.8829C22.2715 18.8829 22.6387 18.7892 22.9434 18.6251C23.0527 18.5704 23.1621 18.6876 23.0996 18.7892C22.8418 19.1876 22.3965 19.4533 21.8809 19.4533C21.3652 19.4533 20.9199 19.1876 20.6621 18.7892C20.5996 18.6876 20.7168 18.5704 20.8184 18.6251Z" fill="#FF5201"/>
<path d="M16.321 10.8227C18.5241 9.48533 21.0523 8.77914 23.6296 8.78125C24.7215 8.78125 25.7687 9.21503 26.5408 9.98715C27.313 10.7593 27.7467 11.8065 27.7467 12.8984C27.7467 13.2852 27.5835 13.632 27.3249 13.8773V15.4164C27.5092 15.6423 27.6407 15.9065 27.7101 16.1897C27.7794 16.4729 27.7847 16.768 27.7255 17.0535C27.6664 17.339 27.5444 17.6077 27.3683 17.8401C27.1922 18.0725 26.9665 18.2627 26.7077 18.3969L26.6335 19.35C26.6335 19.3568 26.6327 19.3633 26.6311 19.3695C26.5921 19.7539 26.4835 20.1141 26.3202 20.4406C26.7051 20.6484 27.0728 20.8802 27.4233 21.1359C27.3238 21.4816 27.3221 21.8481 27.4183 22.1947C27.5146 22.5413 27.7051 22.8544 27.9686 23.0992C27.9197 23.2789 27.8754 23.4586 27.8358 23.6383C27.1584 22.8417 26.3279 22.1892 25.3936 21.7195C25.3476 22.2065 25.1406 22.6643 24.8053 23.0205C24.4699 23.3766 24.0254 23.6108 23.5421 23.6859C23.7881 24.0234 23.9342 24.4399 23.9342 24.8906V26.1953C23.3921 26.1947 22.8723 25.9793 22.4887 25.5962C22.105 25.2132 21.8888 24.6937 21.8874 24.1516C21.8859 24.6937 21.6697 25.2132 21.2861 25.5962C20.9024 25.9793 20.3826 26.1947 19.8405 26.1953V24.8906C19.8405 24.4399 19.9866 24.0234 20.2335 23.6859C19.75 23.6109 19.3053 23.3768 18.9698 23.0207C18.6343 22.6645 18.4271 22.2067 18.3811 21.7195C17.2859 22.2715 16.3353 23.0723 15.6053 24.0578C16.3318 24.1652 17.0159 24.4669 17.5852 24.9308C18.1545 25.3948 18.5879 26.0039 18.8397 26.6938L20.285 30.6563H27.0319C27.0533 30.5469 27.091 30.4445 27.1452 30.3492C27.0593 30.2017 27.014 30.0342 27.0137 29.8635C27.0134 29.6928 27.0582 29.5251 27.1436 29.3774C27.0582 29.2296 27.0134 29.0619 27.0137 28.8912C27.014 28.7205 27.0593 28.553 27.1452 28.4055C27.0517 28.2491 27.0058 28.0688 27.0131 27.8867C27.0272 27.3766 27.4311 26.9906 27.9061 26.9422C27.9385 26.9338 27.9719 26.9296 28.0053 26.9297H28.4116C28.2932 25.5829 28.4311 24.2259 28.8178 22.9305C28.505 22.7154 28.2814 22.3936 28.1889 22.0254C28.0964 21.6572 28.1414 21.2679 28.3155 20.9305C28.8085 19.8969 29.7506 19.3711 30.8272 19.3008H30.853C30.9944 19.3008 31.1413 19.3453 31.271 19.457L31.2788 19.4633C31.3792 19.5545 31.4468 19.6762 31.4711 19.8097C31.4953 19.9431 31.475 20.0808 31.4131 20.2016L31.4092 20.2102L31.4046 20.218C31.2077 20.568 31.146 20.9016 31.235 21.3297L31.2436 21.3688V21.3789C31.2592 21.4675 31.2671 21.556 31.2671 21.6445C31.2671 22.1734 31.0053 22.6399 30.6046 22.9219C30.8398 23.7178 30.9837 24.5379 31.0335 25.3664C31.3305 25.4785 31.5864 25.6784 31.767 25.9395C31.9476 26.2007 32.0444 26.5106 32.0444 26.8281V30.7422C32.0443 31.1191 31.8986 31.4813 31.6377 31.7533C31.3768 32.0252 31.0209 32.1859 30.6444 32.2016C30.591 32.213 30.5365 32.2187 30.4819 32.2188H12.3327C12.1701 32.2187 12.0117 32.1679 11.8793 32.0736C11.747 31.9792 11.6474 31.8459 11.5944 31.6922L10.8288 29.4734L10.828 29.4727C9.89518 26.75 11.5358 23.8094 14.2186 23.3086C15.0389 22.1445 16.1171 21.1758 17.371 20.4859C17.1842 20.1303 17.0677 19.7419 17.028 19.3422L16.9475 18.3156C16.7071 18.1646 16.5024 17.9632 16.3476 17.7252C16.1927 17.4872 16.0915 17.2185 16.0508 16.9375C16.0102 16.6565 16.0311 16.3701 16.1122 16.098C16.1932 15.8259 16.3324 15.5747 16.5202 15.3617V14.1773C16.1521 14.0679 15.8293 13.8424 15.5998 13.5345C15.3703 13.2266 15.2465 12.8528 15.2467 12.4688C15.2467 11.8453 15.5686 11.2672 16.1147 10.9453L16.1155 10.9445L16.321 10.8227ZM19.453 30.6563L18.1061 26.9625C17.8613 26.2927 17.4059 25.7204 16.8082 25.3313C16.2106 24.9422 15.5028 24.7575 14.7913 24.8047L14.7483 24.8102C12.9381 24.9867 11.628 26.9844 12.3061 28.9656L12.8897 30.6563H19.453ZM30.4811 27.7109H28.0827C28.057 27.7162 28.0308 27.7188 28.0046 27.7188C27.8819 27.7188 27.796 27.8141 27.7936 27.9078V27.9125C27.793 27.9461 27.8011 27.9793 27.8172 28.0089C27.8332 28.0384 27.8566 28.0634 27.885 28.0813C27.9388 28.1171 27.9829 28.1657 28.0133 28.2228C28.0437 28.2799 28.0595 28.3436 28.0591 28.4083C28.0588 28.4729 28.0425 28.5365 28.0115 28.5933C27.9806 28.6501 27.9361 28.6983 27.8819 28.7336C27.8557 28.7508 27.8339 28.774 27.8186 28.8013C27.8032 28.8287 27.7946 28.8593 27.7936 28.8906C27.7936 28.9609 27.8272 29.0133 27.8741 29.043C27.93 29.0776 27.9763 29.1257 28.0086 29.183C28.041 29.2403 28.0584 29.3048 28.0591 29.3705C28.0599 29.4363 28.0441 29.5012 28.0131 29.5592C27.9821 29.6172 27.937 29.6664 27.8819 29.7024C27.8557 29.7195 27.8339 29.7427 27.8186 29.7701C27.8032 29.7974 27.7946 29.828 27.7936 29.8594C27.7936 29.9297 27.8272 29.982 27.8741 30.0117C27.9281 30.0452 27.9732 30.0913 28.0054 30.1462C28.0376 30.201 28.0559 30.2628 28.0587 30.3264C28.0616 30.3899 28.0489 30.4531 28.0217 30.5106C27.9946 30.5681 27.9538 30.6181 27.903 30.6563H30.3249C30.3749 30.6458 30.427 30.6406 30.4811 30.6406V27.7109ZM30.2342 25.1594C30.1678 24.3753 30.0105 23.6017 29.7655 22.8539L29.7116 22.6883L29.6561 22.8602C29.411 23.6058 29.2532 24.3774 29.1858 25.1594H30.2342ZM23.0514 21.6719H20.7233C20.6702 21.6719 20.6176 21.6703 20.5655 21.6672C20.6981 21.9199 20.897 22.1316 21.1409 22.2798C21.3849 22.4279 21.6645 22.5067 21.9499 22.5078C22.5538 22.5078 23.0796 22.1609 23.3405 21.657C23.2444 21.6667 23.148 21.6711 23.0514 21.6719ZM25.9686 16.2906L25.9163 17.0406C25.9959 17.0188 26.0667 16.9727 26.119 16.9089C26.1713 16.845 26.2024 16.7665 26.2082 16.6842C26.2139 16.6018 26.1939 16.5198 26.151 16.4493C26.1081 16.3788 26.0444 16.3233 25.9686 16.2906ZM17.5944 16.6578C17.5944 16.8266 17.7006 16.9719 17.8506 17.0297L17.7999 16.3078C17.7375 16.3423 17.6856 16.3929 17.6494 16.4544C17.6133 16.5158 17.5943 16.5866 17.5944 16.6578ZM29.0178 21.2719L29.0147 21.2797L29.0108 21.2859C28.9604 21.3835 28.9312 21.4905 28.925 21.6001C28.9187 21.7097 28.9357 21.8194 28.9747 21.922C29.0137 22.0246 29.0738 22.1178 29.1513 22.1956C29.2287 22.2734 29.3217 22.334 29.4241 22.3734L29.7092 22.4828L29.9928 22.3703C30.1297 22.3158 30.2483 22.2237 30.335 22.1047C30.2848 22.1162 30.2334 22.1214 30.1819 22.1203C29.8381 22.1203 29.5725 21.8234 29.5725 21.4797C29.5725 21.2453 29.385 21.0578 29.1506 21.0578H29.1335C29.0912 21.1271 29.0526 21.1986 29.0178 21.2719ZM25.1616 16.6313L25.1452 16.6328L25.185 16.0938C25.2076 15.7868 25.2284 15.4798 25.2475 15.1727V15.1664C25.2503 15.1226 25.2429 15.0786 25.2262 15.038C25.2094 14.9974 25.1835 14.9612 25.1506 14.932L25.1499 14.9313L25.0116 14.8086C24.8795 14.6915 24.7736 14.5478 24.701 14.3869C24.6285 14.226 24.5908 14.0515 24.5905 13.875V13.8594H19.153V13.875C19.153 14.2375 19.003 14.568 18.7374 14.8117L18.7319 14.8164L18.5936 14.9383C18.5628 14.9696 18.5389 15.0071 18.5236 15.0483C18.5082 15.0895 18.5017 15.1335 18.5046 15.1773V15.1828L18.7764 19.0766C18.885 20.1469 19.7139 20.8906 20.7233 20.8906H23.0514C24.0561 20.8906 24.8897 20.1508 24.9905 19.0859L25.1616 16.6313Z" fill="#FF5201"/>
</svg>
