<svg width="30" height="30" viewBox="0 0 30 30" fill="none" xmlns="http://www.w3.org/2000/svg">
<path d="M10.615 23.9887C10.6442 23.5679 10.7037 23.1508 10.7937 22.7375C10.8725 22.3687 11.1112 21.325 11.4612 19.8125L11.47 19.775L11.9537 17.69C12.0525 17.265 12.1287 16.935 12.18 16.825C11.9387 16.2634 11.8178 15.6575 11.825 15.0462C11.825 13.375 12.77 12.08 13.995 12.08C14.445 12.0725 14.875 12.2675 15.1725 12.6125C15.47 12.9575 15.6075 13.4162 15.55 13.8575C15.55 14.4237 15.4437 14.855 14.9837 16.4012C14.9125 16.6384 14.8437 16.8764 14.7775 17.115C14.7168 17.3311 14.6613 17.5487 14.6112 17.7675C14.4912 18.25 14.6012 18.7637 14.9075 19.1487C15.056 19.3378 15.2477 19.4883 15.4666 19.5877C15.6854 19.6871 15.925 19.7325 16.165 19.72C18.03 19.72 19.415 17.2387 19.415 14.035C19.415 11.5725 17.8025 9.9425 15.125 9.9425C14.4548 9.91774 13.7867 10.0323 13.1629 10.2788C12.5392 10.5254 11.9734 10.8986 11.5012 11.375C11.0191 11.8619 10.6387 12.44 10.3822 13.0754C10.1258 13.7109 9.99837 14.391 10.0075 15.0762C9.97611 15.8147 10.2024 16.5412 10.6475 17.1312C10.8737 17.3062 10.96 17.61 10.8662 17.8687C10.815 18.0787 10.6912 18.5587 10.645 18.7187C10.6321 18.7972 10.6011 18.8717 10.5544 18.9361C10.5078 19.0005 10.4468 19.0532 10.3762 19.09C10.3078 19.1255 10.2318 19.1442 10.1547 19.1447C10.0775 19.1451 10.0014 19.1272 9.9325 19.0925C8.4825 18.4937 7.6875 16.87 7.6875 14.7925C7.6875 11.0612 10.8012 7.8125 15.4275 7.8125C19.3462 7.8125 22.2787 10.7237 22.2787 14.2375C22.2787 18.6525 19.8637 21.8675 16.4162 21.8675C15.9258 21.8825 15.4387 21.7818 14.9943 21.5736C14.55 21.3653 14.161 21.0553 13.8587 20.6687L13.805 20.89L13.5462 21.955L13.5437 21.965C13.3612 22.715 13.2337 23.2362 13.1837 23.4312C13.0504 23.8762 12.8837 24.3096 12.6837 24.7312C15.171 25.324 17.7908 24.9415 20.0048 23.6624C22.2187 22.3832 23.8586 20.3046 24.5873 17.8537C25.316 15.4028 25.0783 12.7659 23.9229 10.4849C22.7674 8.20396 20.7822 6.45222 18.3751 5.58975C15.9681 4.72727 13.3221 4.8196 10.981 5.84776C8.63988 6.87591 6.78156 8.76177 5.78796 11.1177C4.79435 13.4737 4.74095 16.1208 5.63874 18.5149C6.53652 20.909 8.31728 22.867 10.615 23.9887ZM15 27.5C8.09625 27.5 2.5 21.9037 2.5 15C2.5 8.09625 8.09625 2.5 15 2.5C21.9037 2.5 27.5 8.09625 27.5 15C27.5 21.9037 21.9037 27.5 15 27.5Z" fill="#4B0082"/>
</svg>
