<svg width="16" height="17" viewBox="0 0 16 17" fill="none" xmlns="http://www.w3.org/2000/svg">
<path d="M15.5 4.5V5C15.5 5.0663 15.4737 5.12989 15.4268 5.17677C15.3799 5.22366 15.3163 5.25 15.25 5.25H14.5V5.625C14.5 5.83209 14.3321 6 14.125 6H1.875C1.66791 6 1.5 5.83209 1.5 5.625V5.25H0.75C0.683696 5.25 0.620107 5.22366 0.573223 5.17677C0.526339 5.12989 0.5 5.0663 0.5 5V4.5C0.5 4.45054 0.514671 4.40219 0.542156 4.36107C0.569641 4.31995 0.608706 4.28791 0.654406 4.269L7.90441 1.519C7.96562 1.49367 8.03438 1.49367 8.09559 1.519L15.3456 4.269C15.3913 4.28791 15.4304 4.31995 15.4578 4.36107C15.4853 4.40219 15.5 4.45054 15.5 4.5ZM14.75 14H1.25C0.835781 14 0.5 14.3358 0.5 14.75V15.25C0.5 15.3163 0.526339 15.3799 0.573223 15.4268C0.620107 15.4737 0.683696 15.5 0.75 15.5H15.25C15.3163 15.5 15.3799 15.4737 15.4268 15.4268C15.4737 15.3799 15.5 15.3163 15.5 15.25V14.75C15.5 14.3358 15.1642 14 14.75 14ZM3 6.5V12.5H1.875C1.66791 12.5 1.5 12.6679 1.5 12.875V13.5H14.5V12.875C14.5 12.6679 14.3321 12.5 14.125 12.5H13V6.5H11V12.5H9V6.5H7V12.5H5V6.5H3Z" fill="white"/>
</svg>
