<svg width="42" height="42" viewBox="0 0 42 42" fill="none" xmlns="http://www.w3.org/2000/svg">
<circle cx="21" cy="21" r="21" fill="#C7EBFD"/>
<path d="M23.8814 14.5479H33.4052V16.9288H23.8814V14.5479ZM23.8814 19.3098H33.4052V21.6907H23.8814V19.3098ZM23.8814 24.0717H33.4052V26.4526H23.8814V24.0717ZM11.9767 26.4526H19.1195C20.429 26.4526 21.5005 25.3812 21.5005 24.0717V16.9288C21.5005 15.6193 20.429 14.5479 19.1195 14.5479H11.9767C10.6671 14.5479 9.5957 15.6193 9.5957 16.9288V24.0717C9.5957 25.3812 10.6671 26.4526 11.9767 26.4526ZM13.4648 21.3931L14.9528 23.1907L17.0362 20.5002L19.7148 24.0717H11.3814L13.4648 21.3931Z" fill="#006CA2"/>
</svg>
