<svg width="30" height="30" viewBox="0 0 30 30" fill="none" xmlns="http://www.w3.org/2000/svg">
<path d="M15.0493 2.50007C8.22427 2.50007 2.66177 8.06257 2.66177 14.8876C2.66177 17.0751 3.23677 19.2001 4.31177 21.0751L2.56177 27.5001L9.12427 25.7751C10.9368 26.7626 12.9743 27.2876 15.0493 27.2876C21.8743 27.2876 27.4368 21.7251 27.4368 14.9001C27.4368 11.5876 26.1493 8.47507 23.8118 6.13757C22.6656 4.9802 21.3005 4.06253 19.7962 3.43802C18.2918 2.81352 16.6781 2.49467 15.0493 2.50007ZM15.0618 4.58757C17.8118 4.58757 20.3868 5.66257 22.3368 7.61257C23.2935 8.56947 24.0521 9.70571 24.569 10.9562C25.0859 12.2067 25.3511 13.5469 25.3493 14.9001C25.3493 20.5751 20.7243 25.1876 15.0493 25.1876C13.1993 25.1876 11.3868 24.7001 9.81177 23.7501L9.43677 23.5376L5.53677 24.5626L6.57427 20.7626L6.32427 20.3626C5.29245 18.7231 4.74635 16.8247 4.74927 14.8876C4.76177 9.21257 9.37427 4.58757 15.0618 4.58757ZM10.6618 9.16257C10.4618 9.16257 10.1243 9.23757 9.83677 9.55007C9.56177 9.86257 8.74927 10.6251 8.74927 12.1376C8.74927 13.6626 9.86177 15.1251 9.99927 15.3376C10.1743 15.5501 12.1993 18.6751 15.3118 20.0001C16.0493 20.3376 16.6243 20.5251 17.0743 20.6626C17.8118 20.9001 18.4868 20.8626 19.0243 20.7876C19.6243 20.7001 20.8493 20.0376 21.1118 19.3126C21.3743 18.5876 21.3743 17.9751 21.2993 17.8376C21.2118 17.7126 21.0118 17.6376 20.6993 17.5001C20.3868 17.3251 18.8618 16.5751 18.5868 16.4751C18.2993 16.3751 18.1243 16.3251 17.8868 16.6251C17.6868 16.9376 17.0868 17.6376 16.9118 17.8376C16.7243 18.0501 16.5493 18.0751 16.2493 17.9251C15.9243 17.7626 14.9243 17.4376 13.7493 16.3876C12.8243 15.5626 12.2118 14.5501 12.0243 14.2376C11.8743 13.9376 12.0118 13.7501 12.1618 13.6126C12.2993 13.4751 12.4993 13.2501 12.6243 13.0626C12.7868 12.8876 12.8368 12.7501 12.9368 12.5501C13.0368 12.3376 12.9868 12.1626 12.9118 12.0126C12.8368 11.8751 12.2118 10.3251 11.9493 9.71257C11.6993 9.11257 11.4493 9.18757 11.2493 9.17507C11.0743 9.17507 10.8743 9.16257 10.6618 9.16257Z" fill="#4B0082"/>
</svg>
